<?xml version="1.0" encoding="utf-8"?>
<!-- Generator: Adobe Illustrator 24.3.0, SVG Export Plug-In . SVG Version: 6.00 Build 0)  -->
<svg version="1.1" id="レイヤー_1" xmlns="http://www.w3.org/2000/svg" xmlns:xlink="http://www.w3.org/1999/xlink" x="0px"
	 y="0px" viewBox="0 0 1158 429" style="enable-background:new 0 0 1158 429;" xml:space="preserve">
<style type="text/css">
	.st0{fill:#B92125;enable-background:new    ;}
	.st1{fill:#494B46;enable-background:new    ;}
</style>
<path class="st0" d="M325,426c-8.1-13.9-13-29.2-19.2-43.9c-19-45.5-37.8-91.1-56.4-136.8c-5.3-12.9-13.6-20.6-28.1-20.4
	c-2.2,0-5.4,0.1-5.2-3.2c0.2-3.1,3.2-2.9,5.5-2.9c11.3,0.1,22.6,0.2,34,0.6c12.6,0.5,25.3-0.5,37.9-0.6c2.8,0,7.2-1.1,7.5,2.8
	c0.3,4.2-4.3,3.2-7,3.4c-8.7,0.6-11,3.6-8.3,12.6c4.6,15.2,10.9,29.7,16.4,44.5c9.6,25.6,19.4,51.1,29.2,76.6c0.4,1.1,1,2.1,1.9,4.1
	c2.9-5.4,5.6-10.1,8-14.9c23.7-45.9,47.3-91.8,71.1-137.7C447.5,142.3,482.8,74.4,518,6.6c0.8-1.6,2-3.1,3-4.6c1,0,2,0,3,0
	c1.8,2.3,0.5,4.4-0.4,6.5c-11.9,28.1-24.6,55.7-37.4,83.4c-30.5,66-61.1,132-91.6,198c-20,43.2-39.9,86.4-59.9,129.7
	c-1.1,2.4-2.6,4.7-4.7,6.4C328.3,426,326.7,426,325,426z"/>
<path class="st1" d="M3,415c1.8-1.1,3.8-1.2,5.8-1.2c7.8-0.1,13.6-3.4,17.8-10.1c6.3-10.1,10.1-21.4,14.9-32.2
	c21.9-49.5,43.7-99,65.5-148.6c0.9-2.1,2-4.2,3.1-6.3c1.3-2.5,2.8-5.3,6-5.3c3.4-0.1,4.8,2.8,5.9,5.3c3.5,7.9,6.9,15.9,10.2,23.9
	c21.2,51.3,42.5,102.5,63.4,153.8c5.3,12.9,14.3,19,27.9,19.4c2.1,0.1,5-0.4,5.1,2.6c0.1,3.2-3.1,3.1-5.2,3.4
	c-8.8,0.9-17.6-0.7-26.4-0.6c-13.6,0.2-27.3-0.4-40.9,0.8c-3.3,0.3-6.7,0.3-9.9-0.6c-1.5-0.4-3-1-2.9-2.9c0.1-1.8,1.6-2.4,3.2-2.5
	c1.8-0.2,3.7-0.1,5.5-0.3c6.8-0.9,8.9-4,7.3-10.7c-2.5-10.1-6.6-19.5-10.3-29.2c-13.3-35.2-26.7-70.4-40-105.6
	c-0.3-0.9-0.8-1.8-1.6-3.6c-1.2,2.9-2,4.9-2.9,7c-16.1,40.6-32.2,81.1-48.2,121.7c-1.6,4-3.3,8-3.9,12.4c-0.6,4.1,0.8,6.9,5.3,7.4
	c2.8,0.3,5.6,0.6,8.4,0.9c1.8,0.2,4,0.2,4.3,2.5c0.3,2.5-1.9,2.7-3.7,3.1c-3.8,0.8-7.7,0.7-11.5,0.4c-14-1.1-27.9-1.1-41.9,0
	c-3.5,0.3-7,0.4-10.1-1.9C3,417,3,416,3,415z"/>
<path class="st1" d="M699,426c-7.6-1.6-15.3-3-22.6-6c-4.6-1.9-6.6-4.9-6.7-9.9c-0.2-11.7,0.9-23.3,1.2-34.9c0-0.5,0-1,0.2-1.5
	c0.8-2.6,0.4-6.6,4.2-6.3c3.6,0.3,2.6,4,2.9,6.5c0.7,5.1,1.5,10.2,3.5,15c5.6,13.8,15.9,21.5,30.6,22.9c10.5,1,20.8,0.3,29.5-6.5
	c13.3-10.3,16-28.8,6.7-44.1c-5.1-8.4-12.3-14.9-19.8-20.9c-13.4-10.7-27.4-20.6-38.3-34.2c-11.7-14.5-17.2-30.9-14.2-49.3
	c3.5-20.9,20.4-36.2,43.9-40.9c17.9-3.6,35.4-1.9,52.9,2.5c4,1,5.4,3.1,5.2,7.1c-0.5,10.6-0.7,21.3-1.1,31.9
	c-0.1,2.3-0.1,5.2-3.1,5.4c-3.3,0.2-3.1-2.8-3.4-5c-2.7-18.4-15.6-29.6-34.2-29.8c-3.8,0-7.7-0.2-11.4,0.7
	c-20.1,4.8-28.1,25.4-16.4,42.5c6.7,9.8,16.3,16.6,25.5,23.7c13.4,10.2,26.6,20.6,36.8,34.3c17.8,24,17.2,55.5-1.9,76.9
	c-9.4,10.6-21.9,16-35.6,18.8c-1.5,0.3-2.9,0.7-4.3,1C719,426,709,426,699,426z"/>
<path class="st1" d="M1073,426c-7.6-1.6-15.3-3-22.6-6c-4.6-1.9-6.6-4.9-6.7-9.9c-0.2-11.7,0.9-23.3,1.2-34.9c0-0.5,0-1,0.2-1.5
	c0.8-2.6,0.4-6.6,4.2-6.3c3.6,0.3,2.6,4,2.9,6.5c0.7,5.1,1.5,10.2,3.5,15c5.6,13.8,15.9,21.5,30.6,22.9c10.5,1,20.8,0.3,29.5-6.5
	c13.3-10.3,16-28.8,6.7-44.1c-5.1-8.4-12.3-14.9-19.8-20.9c-13.4-10.7-27.4-20.6-38.3-34.2c-11.7-14.5-17.2-30.9-14.2-49.3
	c3.5-20.9,20.4-36.2,43.9-40.9c17.9-3.6,35.4-1.9,52.9,2.5c4,1,5.4,3.1,5.2,7.1c-0.5,10.6-0.7,21.3-1.1,31.9
	c-0.1,2.3-0.1,5.2-3.1,5.4c-3.3,0.2-3.1-2.8-3.4-5c-2.7-18.4-15.6-29.6-34.2-29.8c-3.8,0-7.7-0.2-11.4,0.7
	c-20.1,4.8-28.1,25.4-16.4,42.5c6.7,9.8,16.3,16.6,25.5,23.7c13.4,10.2,26.6,20.6,36.8,34.3c17.8,24,17.2,55.5-1.9,76.9
	c-9.4,10.6-21.9,16-35.6,18.8c-1.5,0.3-2.9,0.7-4.3,1C1093,426,1083,426,1073,426z"/>
<path class="st1" d="M516,265.5c-1.7,0.9-1.9,2.6-2.4,3.9c-16.5,41.5-32.9,83-49.4,124.5c-1.3,3.2-2.4,6.6-3.3,10
	c-1.6,6.1-0.3,8.1,6.1,9.3c2.4,0.4,5,0.5,7.4,0.7c1.9,0.2,4,0.3,4.1,2.7c0.1,2.4-2.1,2.9-3.9,3c-3.6,0.3-7.3,0.6-11,0.4
	c-14.1-1-28.3-1.1-42.4,0c-2.5,0.2-5,0.1-7.4-0.6c-1.4-0.4-2.5-1.1-2.5-2.7c0-1.6,1.2-2.3,2.6-2.6c0.5-0.1,1-0.2,1.5-0.2
	c11.8,0.6,18.4-6.3,22.8-16.1c8.3-18.4,16.4-36.8,24.5-55.3c17.6-39.9,35.1-79.9,52.7-119.9c1.3-2.9,2.6-5.8,4.4-8.4
	c2.7-4.1,6.5-4,9.2,0.1c1.5,2.4,2.7,5,3.7,7.6c23.3,56.5,46.8,113,69.8,169.6c5.7,14.1,14.5,22.4,30.1,22.3c1.9,0,4,0.2,4.1,2.6
	c0.2,2.5-2,2.9-3.8,3.1c-3.3,0.3-6.7,0.6-10,0.4c-20.1-1.2-40.3-1.2-60.4,0c-2.5,0.1-5-0.1-7.5-0.4c-1.8-0.2-4.1-0.7-3.9-3
	c0.2-2.7,2.6-2.6,4.6-2.7c1.8-0.1,3.7-0.1,5.5-0.5c5.3-1.1,7.1-3.4,6.3-8.8c-0.4-3.1-1.3-6.2-2.4-9.2c-16-42.6-32.1-85.1-48.2-127.6
	C516.8,266.9,516.3,266.3,516,265.5z"/>
<path class="st1" d="M826,217.8c16.3,2.1,32.6,0.3,48.9,0c1.3,0,2.7-0.1,4,0c2,0.1,4.4,0.2,4.8,2.7c0.3,2.4-2,2.7-3.7,3.3
	c-5.8,2.2-6.7,3.6-4.2,9.3c5.4,12.6,12.9,24.1,19.6,36c8.2,14.5,16.6,28.9,24.9,43.3c0.7,1.2,1,3.3,2.8,3.1c1.3-0.1,1.6-2,2.2-3.1
	c11.3-20.4,22.6-40.8,33.9-61.2c3.2-5.7,6-11.5,7.1-18c0.8-4.7-0.6-7.8-5.3-9.1c-2-0.6-4.9-0.8-4.3-3.8c0.6-2.6,3.3-2.5,5.4-2.4
	c6.8,0.2,13.6,0.8,20.5,0.8c10,0,20-0.6,30-0.8c1.7,0,3.3,0,5,0.2c1.4,0.2,2.7,0.8,2.8,2.4c0.2,1.8-1.2,2.6-2.7,3.1
	c-0.5,0.2-1,0.3-1.5,0.4c-12.9,0.2-21.1,8-28,17.6c-13.2,18.3-24.3,37.8-35.7,57.2c-4.7,8-9,16.3-13.4,24.6
	c-3.2,6-4.8,12.5-4.8,19.2c-0.1,18.7,0,37.3,0.1,56c0,2.3,0.5,4.6,0.9,6.9c1.2,6.5,4.5,9.6,11,10.3c4,0.4,8,0.7,11.9,1
	c2,0.2,4.5,0,4.6,2.7c0.1,2.6-2.5,2.8-4.4,3.1c-4.1,0.7-8.3-0.2-12.4-0.2c-20-0.2-40-1-60,0.4c-1.8,0.1-3.7,0-5.5-0.3
	c-1.9-0.3-4.4-0.5-4.2-3.3c0.2-2.4,2.4-2.3,4.3-2.5c2.1-0.2,4.3-0.6,6.4-0.7c5.8-0.3,8.5-3.8,9.8-9c1.9-7.4,1.4-14.9,1.6-22.4
	c0.5-13.8,0.9-27.6-0.5-41.4c-0.7-7.5-3-14.4-6.6-20.8c-14.6-25.4-30.1-50.4-45.9-75c-3.7-5.8-8.2-10.9-13.1-15.7
	c-4.5-4.3-9.7-7-15.9-7.7c-2.1-0.2-4.9-0.3-4.9-3.1c0.1-3.1,3.1-3,5.4-3.1C819.9,217.7,823,217.8,826,217.8z"/>
</svg>
